<svg xmlns="http://www.w3.org/2000/svg" viewBox="0 0 640 512"><path d="M27.8 118.8C1.2 134.2-7.9 168.2 7.5 194.9c55.7 96.5 111.3 192.9 167 289.3c15.4 26.6 49.4 35.8 76.1 20.4c30.3-17.5 60.5-35 90.8-52.5c-13.6-25-21.4-53.7-21.4-84.1c0-64.3 34.5-120.5 85.9-151.2c-36.4-63-72.7-126-109.1-189C281.4 1.2 247.3-7.9 220.7 7.5C156.4 44.6 92.1 81.7 27.8 118.8zM324.1 499c9.7 8.1 22.2 13 35.9 13c11.6 0 23.2 0 34.8 0c-13.3-9.4-25.3-20.6-35.6-33.3c-11.7 6.8-23.4 13.5-35.1 20.3zM640 120c0-30.9-25.1-56-56-56c-74.7 0-149.3 0-224 0c-1.8 0-3.5 .1-5.3 .2c26.7 46.2 53.4 92.5 80.1 138.7c19.1-7.1 39.7-10.9 61.2-10.9c59.5 0 112.1 29.6 144 74.8c0-48.9 0-97.9 0-146.8zm0 248c0 79.5-64.5 144-144 144s-144-64.5-144-144s64.5-144 144-144s144 64.5 144 144zM480 304l0 48c-16 0-32 0-48 0c-8.8 0-16 7.2-16 16s7.2 16 16 16c16 0 32 0 48 0l0 48c0 8.8 7.2 16 16 16s16-7.2 16-16c0-16 0-32 0-48c16 0 32 0 48 0c8.8 0 16-7.2 16-16s-7.2-16-16-16c-16 0-32 0-48 0c0-16 0-32 0-48c0-8.8-7.2-16-16-16s-16 7.2-16 16z"/></svg>