<svg xmlns="http://www.w3.org/2000/svg" viewBox="0 0 640 512"><path d="M352 256c0 3.7 0 7.3-.1 10.9c-11.2 15.9-19.8 33.8-25.3 53.1c-54.5 0-108.9 0-163.3 0c-2.2-20.4-3.3-41.8-3.3-64s1.2-43.6 3.3-64c61.8 0 123.6 0 185.4 0c2.2 20.4 3.3 41.8 3.3 64zm28.8-64L496 192c-42.7 0-81.9 15.2-112.4 40.6c-.5-13.8-1.4-27.4-2.8-40.6zm123.1 0l0 .2c-2.6-.1-5.3-.2-7.9-.2c2.6 0 5.3 0 7.9 0zm-10.6-32l-116.6 0c-10-63.9-29.8-117.4-55.3-151.6c78.3 20.7 142 77.5 171.9 151.6zm-149 0l-176.6 0c6.1-36.4 15.5-68.6 27-94.7c10.5-23.6 22.2-40.7 33.5-51.5C239.4 3.2 248.7 0 256 0s16.6 3.2 27.8 13.8c11.3 10.8 23 27.9 33.5 51.5c11.6 26 21 58.2 27 94.7zm-209 0L18.6 160c30-74.1 93.6-130.9 172-151.6C165.1 42.6 145.3 96.1 135.3 160zM8.1 192l123.1 0c-2.1 20.6-3.2 42-3.2 64s1.1 43.4 3.2 64c-41 0-82.1 0-123.1 0C2.8 299.5 0 278.1 0 256s2.8-43.5 8.1-64zM194.7 446.6c-11.6-26-20.9-58.2-27-94.6c51 0 102 0 153 0c-.5 5.3-.7 10.6-.7 16c0 18 2.7 35.3 7.7 51.6c-3.2 9.6-6.7 18.6-10.4 27c-10.5 23.6-22.2 40.7-33.5 51.5C272.6 508.8 263.3 512 256 512s-16.6-3.2-27.8-13.8c-11.3-10.8-23-27.9-33.5-51.5c0-.1 0 0 0-.1zM135.3 352c10 63.9 29.8 117.4 55.3 151.6c-78.4-20.7-142-77.5-172-151.6c38.9 0 77.8 0 116.7 0zM321.5 503.6c9-12.1 17.3-26.6 24.7-43.2c5.9 9.5 12.7 18.4 20.2 26.6c-14.3 6.8-29.3 12.4-44.9 16.5zM640 368c0 79.5-64.5 144-144 144s-144-64.5-144-144s64.5-144 144-144s144 64.5 144 144zM496 272c-13.3 0-24 10.7-24 24s10.7 24 24 24s24-10.7 24-24s-10.7-24-24-24zm-16 80c-8.8 0-16 7.2-16 16s7.2 16 16 16l0 48c-8.8 0-16 7.2-16 16s7.2 16 16 16c10.7 0 21.3 0 32 0c8.8 0 16-7.2 16-16s-7.2-16-16-16c0-21.3 0-42.7 0-64c0-8.8-7.2-16-16-16c-5.3 0-10.7 0-16 0z"/></svg>