<svg xmlns="http://www.w3.org/2000/svg" viewBox="0 0 640 512"><path d="M224 256c45.7 0 88-24.4 110.9-64s22.9-88.4 0-128S269.7 0 224 0s-88 24.4-110.9 64s-22.9 88.4 0 128s65.1 64 110.9 64zm-45.7 48C79.8 304 0 383.8 0 482.3C0 498.7 13.3 512 29.7 512c121 0 241.9 0 362.9 0c-5.5-9.4-8.6-20.3-8.6-32c0-42.7 0-85.3 0-128c0-2.1 .1-4.2 .3-6.3c-31-26-71-41.7-114.6-41.7c-30.5 0-60.9 0-91.4 0zM496 272l0 48c21.3 0 42.7 0 64 0c0-16 0-32 0-48c0-17.7-14.3-32-32-32s-32 14.3-32 32zm-48 48l0-48c0-44.2 35.8-80 80-80s80 35.8 80 80c0 16 0 32 0 48c17.7 0 32 14.3 32 32c0 42.7 0 85.3 0 128c0 17.7-14.3 32-32 32c-53.3 0-106.7 0-160 0c-17.7 0-32-14.3-32-32c0-42.7 0-85.3 0-128c0-17.7 14.3-32 32-32z"/></svg>